solid куб
facet normal 0.0 -1.0 0.0
  outer loop
    vertex 180.1 170.10000000000005 169.99999999999997
    vertex 170.1 170.10000000000005 10.000000000000027
    vertex 180.1 170.10000000000005 10.000000000000027
  endloop
endfacet
facet normal 0.0 -1.0 0.0
  outer loop
    vertex 170.1 170.10000000000005 10.000000000000027
    vertex 180.1 170.10000000000005 169.99999999999997
    vertex 170.1 170.10000000000005 169.99999999999997
  endloop
endfacet
facet normal 0.0 0.0 1.0
  outer loop
    vertex 180.1 10.000000000000027 10.000000000000027
    vertex 170.1 170.10000000000005 10.000000000000027
    vertex 170.1 10.000000000000027 10.000000000000027
  endloop
endfacet
facet normal 0.0 0.0 1.0
  outer loop
    vertex 170.1 170.10000000000005 10.000000000000027
    vertex 180.1 10.000000000000027 10.000000000000027
    vertex 180.1 170.10000000000005 10.000000000000027
  endloop
endfacet
facet normal 1.0 -0.0 -0.0
  outer loop
    vertex 180.1 0.0 0.0
    vertex 180.1 10.000000000000027 10.000000000000027
    vertex 180.1 0.0 180.0
  endloop
endfacet
facet normal 1.0 -0.0 -0.0
  outer loop
    vertex 180.1 10.000000000000027 10.000000000000027
    vertex 180.1 0.0 0.0
    vertex 180.1 180.10000000000005 0.0
  endloop
endfacet
facet normal 1.0 -0.0 -0.0
  outer loop
    vertex 180.1 10.000000000000027 10.000000000000027
    vertex 180.1 180.10000000000005 0.0
    vertex 180.1 170.10000000000005 10.000000000000027
  endloop
endfacet
facet normal 1.0 -0.0 -0.0
  outer loop
    vertex 180.1 170.10000000000005 10.000000000000027
    vertex 180.1 180.10000000000005 0.0
    vertex 180.1 170.10000000000005 169.99999999999997
  endloop
endfacet
facet normal 1.0 -0.0 -0.0
  outer loop
    vertex 180.1 0.0 180.0
    vertex 180.1 10.000000000000027 170.0
    vertex 180.1 180.10000000000005 180.0
  endloop
endfacet
facet normal 1.0 -0.0 -0.0
  outer loop
    vertex 180.1 10.000000000000027 170.0
    vertex 180.1 0.0 180.0
    vertex 180.1 10.000000000000027 10.000000000000027
  endloop
endfacet
facet normal 1.0 -0.0 -0.0
  outer loop
    vertex 180.1 180.10000000000005 180.0
    vertex 180.1 10.000000000000027 170.0
    vertex 180.1 170.10000000000005 169.99999999999997
  endloop
endfacet
facet normal 1.0 -0.0 -0.0
  outer loop
    vertex 180.1 180.10000000000005 180.0
    vertex 180.1 170.10000000000005 169.99999999999997
    vertex 180.1 180.10000000000005 0.0
  endloop
endfacet
facet normal -3.839525157222388e-17 6.024646450785686e-20 1.0
  outer loop
    vertex 0.0 0.0 180.0
    vertex 9.999999999999998 10.000000000000004 179.99999999999997
    vertex 0.0 180.10000000000005 180.0
  endloop
endfacet
facet normal -3.839525157222388e-17 6.024646450785686e-20 1.0
  outer loop
    vertex 9.999999999999998 10.000000000000004 179.99999999999997
    vertex 0.0 0.0 180.0
    vertex 180.1 0.0 180.0
  endloop
endfacet
facet normal -3.839525157222388e-17 6.024646450785686e-20 1.0
  outer loop
    vertex 9.999999999999998 10.000000000000004 179.99999999999997
    vertex 180.1 0.0 180.0
    vertex 170.1 10.000000000000004 180.0
  endloop
endfacet
facet normal -3.839525157222388e-17 6.024646450785686e-20 1.0
  outer loop
    vertex 0.0 180.10000000000005 180.0
    vertex 9.999999999999998 170.10000000000005 179.99999999999997
    vertex 180.1 180.10000000000005 180.0
  endloop
endfacet
facet normal -3.839525157222388e-17 6.024646450785686e-20 1.0
  outer loop
    vertex 9.999999999999998 170.10000000000005 179.99999999999997
    vertex 0.0 180.10000000000005 180.0
    vertex 9.999999999999998 10.000000000000004 179.99999999999997
  endloop
endfacet
facet normal -3.839525157222388e-17 6.024646450785686e-20 1.0
  outer loop
    vertex 180.1 180.10000000000005 180.0
    vertex 9.999999999999998 170.10000000000005 179.99999999999997
    vertex 170.1 170.10000000000005 180.0
  endloop
endfacet
facet normal -3.839525157222388e-17 6.024646450785686e-20 1.0
  outer loop
    vertex 180.1 180.10000000000005 180.0
    vertex 170.1 170.10000000000005 180.0
    vertex 170.1 10.000000000000004 180.0
  endloop
endfacet
facet normal -3.839525157222388e-17 6.024646450785686e-20 1.0
  outer loop
    vertex 180.1 180.10000000000005 180.0
    vertex 170.1 10.000000000000004 180.0
    vertex 180.1 0.0 180.0
  endloop
endfacet
facet normal 7.593832302205522e-17 -1.0 -3.187852866469913e-17
  outer loop
    vertex 180.1 0.0 180.0
    vertex 170.1 2.255973186038318e-14 2.255973186038318e-14
    vertex 180.1 0.0 0.0
  endloop
endfacet
facet normal 7.593832302205522e-17 -1.0 -3.187852866469913e-17
  outer loop
    vertex 170.1 2.255973186038318e-14 2.255973186038318e-14
    vertex 180.1 0.0 180.0
    vertex 170.1 2.2227971097730488e-14 10.000000000000027
  endloop
endfacet
facet normal 7.593832302205522e-17 -1.0 -3.187852866469913e-17
  outer loop
    vertex 170.1 2.255973186038318e-14 2.255973186038318e-14
    vertex 170.1 2.2227971097730488e-14 10.000000000000027
    vertex 10.000000000000027 -3.3176076265269014e-16 10.000000000000004
  endloop
endfacet
facet normal 7.593832302205522e-17 -1.0 -3.187852866469913e-17
  outer loop
    vertex 170.1 2.2227971097730488e-14 10.000000000000027
    vertex 180.1 0.0 180.0
    vertex 170.10000000000002 1.127986593019159e-14 170.0
  endloop
endfacet
facet normal 7.593832302205522e-17 -1.0 -3.187852866469913e-17
  outer loop
    vertex 0.0 0.0 0.0
    vertex 10.000000000000027 -3.3176076265269014e-16 10.000000000000004
    vertex 0.0 0.0 180.0
  endloop
endfacet
facet normal 7.593832302205522e-17 -1.0 -3.187852866469913e-17
  outer loop
    vertex 10.000000000000027 -3.3176076265269014e-16 10.000000000000004
    vertex 0.0 0.0 0.0
    vertex 170.1 2.255973186038318e-14 2.255973186038318e-14
  endloop
endfacet
facet normal 7.593832302205522e-17 -1.0 -3.187852866469913e-17
  outer loop
    vertex 0.0 0.0 180.0
    vertex 10.000000000000027 -3.3176076265269014e-16 10.000000000000004
    vertex 9.999999999999998 0.0 169.99999999999997
  endloop
endfacet
facet normal 7.593832302205522e-17 -1.0 -3.187852866469913e-17
  outer loop
    vertex 0.0 0.0 180.0
    vertex 9.999999999999998 0.0 169.99999999999997
    vertex 170.10000000000002 1.127986593019159e-14 170.0
  endloop
endfacet
facet normal 7.593832302205522e-17 -1.0 -3.187852866469913e-17
  outer loop
    vertex 0.0 0.0 180.0
    vertex 170.10000000000002 1.127986593019159e-14 170.0
    vertex 180.1 0.0 180.0
  endloop
endfacet
facet normal -0.0 -0.0 1.0
  outer loop
    vertex 9.999999999999998 10.000000000000004 10.000000000000004
    vertex 0.0 170.10000000000005 10.000000000000004
    vertex 0.0 10.000000000000004 10.000000000000004
  endloop
endfacet
facet normal -0.0 -0.0 1.0
  outer loop
    vertex 0.0 170.10000000000005 10.000000000000004
    vertex 9.999999999999998 10.000000000000004 10.000000000000004
    vertex 9.999999999999998 170.10000000000005 10.000000000000004
  endloop
endfacet
facet normal -0.0 -1.0 -0.0
  outer loop
    vertex 9.999999999999998 170.10000000000005 169.99999999999997
    vertex 0.0 170.10000000000005 10.000000000000004
    vertex 9.999999999999998 170.10000000000005 10.000000000000004
  endloop
endfacet
facet normal -0.0 -1.0 -0.0
  outer loop
    vertex 0.0 170.10000000000005 10.000000000000004
    vertex 9.999999999999998 170.10000000000005 169.99999999999997
    vertex 0.0 170.10000000000005 169.99999999999997
  endloop
endfacet
facet normal -1.0 0.0 0.0
  outer loop
    vertex 0.0 0.0 180.0
    vertex 0.0 10.000000000000004 169.99999999999997
    vertex 0.0 0.0 0.0
  endloop
endfacet
facet normal -1.0 0.0 0.0
  outer loop
    vertex 0.0 10.000000000000004 169.99999999999997
    vertex 0.0 0.0 180.0
    vertex 0.0 180.10000000000005 180.0
  endloop
endfacet
facet normal -1.0 0.0 0.0
  outer loop
    vertex 0.0 10.000000000000004 169.99999999999997
    vertex 0.0 180.10000000000005 180.0
    vertex 0.0 170.10000000000005 169.99999999999997
  endloop
endfacet
facet normal -1.0 0.0 0.0
  outer loop
    vertex 0.0 170.10000000000005 169.99999999999997
    vertex 0.0 180.10000000000005 180.0
    vertex 0.0 170.10000000000005 10.000000000000004
  endloop
endfacet
facet normal -1.0 0.0 0.0
  outer loop
    vertex 0.0 0.0 0.0
    vertex 0.0 10.000000000000004 10.000000000000004
    vertex 0.0 180.10000000000005 0.0
  endloop
endfacet
facet normal -1.0 0.0 0.0
  outer loop
    vertex 0.0 10.000000000000004 10.000000000000004
    vertex 0.0 0.0 0.0
    vertex 0.0 10.000000000000004 169.99999999999997
  endloop
endfacet
facet normal -1.0 0.0 0.0
  outer loop
    vertex 0.0 180.10000000000005 0.0
    vertex 0.0 10.000000000000004 10.000000000000004
    vertex 0.0 170.10000000000005 10.000000000000004
  endloop
endfacet
facet normal -1.0 0.0 0.0
  outer loop
    vertex 0.0 180.10000000000005 0.0
    vertex 0.0 170.10000000000005 10.000000000000004
    vertex 0.0 180.10000000000005 180.0
  endloop
endfacet
facet normal 9.463356262548829e-17 -1.2265656875809018e-17 -1.0
  outer loop
    vertex 0.0 180.10000000000005 0.0
    vertex 9.999999999999998 170.10000000000005 0.0
    vertex 0.0 0.0 0.0
  endloop
endfacet
facet normal 9.463356262548829e-17 -1.2265656875809018e-17 -1.0
  outer loop
    vertex 9.999999999999998 170.10000000000005 0.0
    vertex 0.0 180.10000000000005 0.0
    vertex 180.1 180.10000000000005 0.0
  endloop
endfacet
facet normal 9.463356262548829e-17 -1.2265656875809018e-17 -1.0
  outer loop
    vertex 9.999999999999998 170.10000000000005 0.0
    vertex 180.1 180.10000000000005 0.0
    vertex 170.1 170.10000000000005 2.2559731860383176e-14
  endloop
endfacet
facet normal 9.463356262548829e-17 -1.2265656875809018e-17 -1.0
  outer loop
    vertex 170.1 170.10000000000005 2.2559731860383176e-14
    vertex 180.1 180.10000000000005 0.0
    vertex 170.1 10.00000000000005 2.255973186038318e-14
  endloop
endfacet
facet normal 9.463356262548829e-17 -1.2265656875809018e-17 -1.0
  outer loop
    vertex 170.1 10.00000000000005 2.255973186038318e-14
    vertex 180.1 180.10000000000005 0.0
    vertex 170.1 2.255973186038318e-14 2.255973186038318e-14
  endloop
endfacet
facet normal 9.463356262548829e-17 -1.2265656875809018e-17 -1.0
  outer loop
    vertex 170.1 2.255973186038318e-14 2.255973186038318e-14
    vertex 180.1 180.10000000000005 0.0
    vertex 180.1 0.0 0.0
  endloop
endfacet
facet normal 9.463356262548829e-17 -1.2265656875809018e-17 -1.0
  outer loop
    vertex 0.0 0.0 0.0
    vertex 10.000000000000027 10.000000000000027 2.5046333740767123e-30
    vertex 170.1 2.255973186038318e-14 2.255973186038318e-14
  endloop
endfacet
facet normal 9.463356262548829e-17 -1.2265656875809018e-17 -1.0
  outer loop
    vertex 10.000000000000027 10.000000000000027 2.5046333740767123e-30
    vertex 0.0 0.0 0.0
    vertex 9.999999999999998 170.10000000000005 0.0
  endloop
endfacet
facet normal 9.463356262548829e-17 -1.2265656875809018e-17 -1.0
  outer loop
    vertex 170.1 2.255973186038318e-14 2.255973186038318e-14
    vertex 10.000000000000027 10.000000000000027 2.5046333740767123e-30
    vertex 170.1 10.00000000000005 2.255973186038318e-14
  endloop
endfacet
facet normal 1.0 -0.0 -0.0
  outer loop
    vertex 9.999999999999998 180.10000000000005 10.000000000000004
    vertex 9.999999999999998 170.10000000000005 169.99999999999997
    vertex 9.999999999999998 170.10000000000005 10.000000000000004
  endloop
endfacet
facet normal 1.0 -0.0 -0.0
  outer loop
    vertex 9.999999999999998 170.10000000000005 169.99999999999997
    vertex 9.999999999999998 180.10000000000005 10.000000000000004
    vertex 9.999999999999998 180.10000000000005 169.99999999999997
  endloop
endfacet
facet normal -0.0 -1.0 -0.0
  outer loop
    vertex 170.1 170.10000000000005 2.2559731860383176e-14
    vertex 9.999999999999998 170.10000000000005 10.000000000000004
    vertex 9.999999999999998 170.10000000000005 0.0
  endloop
endfacet
facet normal -0.0 -1.0 -0.0
  outer loop
    vertex 9.999999999999998 170.10000000000005 10.000000000000004
    vertex 170.1 170.10000000000005 2.2559731860383176e-14
    vertex 170.1 170.10000000000005 10.000000000000027
  endloop
endfacet
facet normal -1.409102552178837e-16 -0.0 1.0
  outer loop
    vertex 170.1 170.10000000000005 10.000000000000027
    vertex 9.999999999999998 180.10000000000005 10.000000000000004
    vertex 9.999999999999998 170.10000000000005 10.000000000000004
  endloop
endfacet
facet normal -1.409102552178837e-16 -0.0 1.0
  outer loop
    vertex 9.999999999999998 180.10000000000005 10.000000000000004
    vertex 170.1 170.10000000000005 10.000000000000027
    vertex 170.1 180.10000000000005 10.000000000000027
  endloop
endfacet
facet normal -0.0 1.0 -0.0
  outer loop
    vertex 0.0 180.10000000000005 0.0
    vertex 9.999999999999998 180.10000000000005 10.000000000000004
    vertex 180.1 180.10000000000005 0.0
  endloop
endfacet
facet normal -0.0 1.0 -0.0
  outer loop
    vertex 9.999999999999998 180.10000000000005 10.000000000000004
    vertex 0.0 180.10000000000005 0.0
    vertex 0.0 180.10000000000005 180.0
  endloop
endfacet
facet normal -0.0 1.0 -0.0
  outer loop
    vertex 9.999999999999998 180.10000000000005 10.000000000000004
    vertex 0.0 180.10000000000005 180.0
    vertex 9.999999999999998 180.10000000000005 169.99999999999997
  endloop
endfacet
facet normal -0.0 1.0 -0.0
  outer loop
    vertex 9.999999999999998 180.10000000000005 169.99999999999997
    vertex 0.0 180.10000000000005 180.0
    vertex 170.1 180.10000000000005 169.99999999999997
  endloop
endfacet
facet normal -0.0 1.0 -0.0
  outer loop
    vertex 180.1 180.10000000000005 0.0
    vertex 170.1 180.10000000000005 10.000000000000027
    vertex 180.1 180.10000000000005 180.0
  endloop
endfacet
facet normal -0.0 1.0 -0.0
  outer loop
    vertex 170.1 180.10000000000005 10.000000000000027
    vertex 180.1 180.10000000000005 0.0
    vertex 9.999999999999998 180.10000000000005 10.000000000000004
  endloop
endfacet
facet normal -0.0 1.0 -0.0
  outer loop
    vertex 180.1 180.10000000000005 180.0
    vertex 170.1 180.10000000000005 10.000000000000027
    vertex 170.1 180.10000000000005 169.99999999999997
  endloop
endfacet
facet normal -0.0 1.0 -0.0
  outer loop
    vertex 180.1 180.10000000000005 180.0
    vertex 170.1 180.10000000000005 169.99999999999997
    vertex 0.0 180.10000000000005 180.0
  endloop
endfacet
facet normal 1.409102552178837e-16 -0.0 -1.0
  outer loop
    vertex 170.1 180.10000000000005 169.99999999999997
    vertex 9.999999999999998 170.10000000000005 169.99999999999997
    vertex 9.999999999999998 180.10000000000005 169.99999999999997
  endloop
endfacet
facet normal 1.409102552178837e-16 -0.0 -1.0
  outer loop
    vertex 9.999999999999998 170.10000000000005 169.99999999999997
    vertex 170.1 180.10000000000005 169.99999999999997
    vertex 170.1 170.10000000000005 169.99999999999997
  endloop
endfacet
facet normal -0.0 -1.0 -0.0
  outer loop
    vertex 170.1 170.10000000000005 169.99999999999997
    vertex 9.999999999999998 170.10000000000005 179.99999999999997
    vertex 9.999999999999998 170.10000000000005 169.99999999999997
  endloop
endfacet
facet normal -0.0 -1.0 -0.0
  outer loop
    vertex 9.999999999999998 170.10000000000005 179.99999999999997
    vertex 170.1 170.10000000000005 169.99999999999997
    vertex 170.1 170.10000000000005 180.0
  endloop
endfacet
facet normal -1.4091025521788403e-16 1.0 2.255973186038317e-15
  outer loop
    vertex 9.999999999999998 10.000000000000004 10.000000000000004
    vertex 170.1 10.00000000000005 2.255973186038318e-14
    vertex 10.000000000000027 10.000000000000027 2.5046333740767123e-30
  endloop
endfacet
facet normal -1.4091025521788403e-16 1.0 2.255973186038317e-15
  outer loop
    vertex 170.1 10.00000000000005 2.255973186038318e-14
    vertex 9.999999999999998 10.000000000000004 10.000000000000004
    vertex 170.1 10.000000000000027 10.000000000000027
  endloop
endfacet
facet normal -1.4091025521788374e-16 -0.0 1.0
  outer loop
    vertex 10.000000000000027 -3.3176076265269014e-16 10.000000000000004
    vertex 170.1 10.000000000000027 10.000000000000027
    vertex 9.999999999999998 10.000000000000004 10.000000000000004
  endloop
endfacet
facet normal -1.4091025521788374e-16 -0.0 1.0
  outer loop
    vertex 170.1 10.000000000000027 10.000000000000027
    vertex 10.000000000000027 -3.3176076265269014e-16 10.000000000000004
    vertex 170.1 2.2227971097730488e-14 10.000000000000027
  endloop
endfacet
facet normal 1.0 -0.0 -0.0
  outer loop
    vertex 9.999999999999998 170.10000000000005 169.99999999999997
    vertex 9.999999999999998 10.000000000000004 179.99999999999997
    vertex 9.999999999999998 10.000000000000004 169.99999999999997
  endloop
endfacet
facet normal 1.0 -0.0 -0.0
  outer loop
    vertex 9.999999999999998 10.000000000000004 179.99999999999997
    vertex 9.999999999999998 170.10000000000005 169.99999999999997
    vertex 9.999999999999998 170.10000000000005 179.99999999999997
  endloop
endfacet
facet normal 1.0 1.4099832412739481e-15 8.812395257962181e-17
  outer loop
    vertex 9.999999999999998 10.000000000000004 10.000000000000004
    vertex 9.999999999999998 0.0 169.99999999999997
    vertex 10.000000000000027 -3.3176076265269014e-16 10.000000000000004
  endloop
endfacet
facet normal 1.0 1.4099832412739481e-15 8.812395257962181e-17
  outer loop
    vertex 9.999999999999998 0.0 169.99999999999997
    vertex 9.999999999999998 10.000000000000004 10.000000000000004
    vertex 9.999999999999998 10.000000000000004 169.99999999999997
  endloop
endfacet
facet normal 1.0 8.806890951117729e-17 1.4099832412739481e-15
  outer loop
    vertex 10.000000000000027 10.000000000000027 2.5046333740767123e-30
    vertex 9.999999999999998 170.10000000000005 10.000000000000004
    vertex 9.999999999999998 10.000000000000004 10.000000000000004
  endloop
endfacet
facet normal 1.0 8.806890951117729e-17 1.4099832412739481e-15
  outer loop
    vertex 9.999999999999998 170.10000000000005 10.000000000000004
    vertex 10.000000000000027 10.000000000000027 2.5046333740767123e-30
    vertex 9.999999999999998 170.10000000000005 0.0
  endloop
endfacet
facet normal -1.0 -7.045512760894183e-17 -1.1279865930191587e-15
  outer loop
    vertex 170.1 170.10000000000005 180.0
    vertex 170.1 10.000000000000004 169.99999999999997
    vertex 170.1 10.000000000000004 180.0
  endloop
endfacet
facet normal -1.0 -7.045512760894183e-17 -1.1279865930191587e-15
  outer loop
    vertex 170.1 10.000000000000004 169.99999999999997
    vertex 170.1 170.10000000000005 180.0
    vertex 170.1 170.10000000000005 169.99999999999997
  endloop
endfacet
facet normal -0.0 1.0 -0.0
  outer loop
    vertex 9.999999999999998 10.000000000000004 179.99999999999997
    vertex 170.1 10.000000000000004 169.99999999999997
    vertex 9.999999999999998 10.000000000000004 169.99999999999997
  endloop
endfacet
facet normal -0.0 1.0 -0.0
  outer loop
    vertex 170.1 10.000000000000004 169.99999999999997
    vertex 9.999999999999998 10.000000000000004 179.99999999999997
    vertex 170.1 10.000000000000004 180.0
  endloop
endfacet
facet normal 7.045512760894189e-17 -1.1279865930191583e-15 -1.0
  outer loop
    vertex 170.1 10.000000000000004 169.99999999999997
    vertex 9.999999999999998 0.0 169.99999999999997
    vertex 9.999999999999998 10.000000000000004 169.99999999999997
  endloop
endfacet
facet normal 7.045512760894189e-17 -1.1279865930191583e-15 -1.0
  outer loop
    vertex 9.999999999999998 0.0 169.99999999999997
    vertex 170.1 10.000000000000004 169.99999999999997
    vertex 170.10000000000002 1.127986593019159e-14 170.0
  endloop
endfacet
facet normal 1.1279865930191585e-15 -7.045512760894182e-17 -1.0
  outer loop
    vertex 180.1 170.10000000000005 169.99999999999997
    vertex 170.1 10.000000000000004 169.99999999999997
    vertex 170.1 170.10000000000005 169.99999999999997
  endloop
endfacet
facet normal 1.1279865930191585e-15 -7.045512760894182e-17 -1.0
  outer loop
    vertex 170.1 10.000000000000004 169.99999999999997
    vertex 180.1 170.10000000000005 169.99999999999997
    vertex 180.1 10.000000000000027 170.0
  endloop
endfacet
facet normal -1.1279865930191587e-15 1.0 7.049916206369745e-17
  outer loop
    vertex 170.1 10.000000000000004 169.99999999999997
    vertex 180.1 10.000000000000027 10.000000000000027
    vertex 170.1 10.000000000000027 10.000000000000027
  endloop
endfacet
facet normal -1.1279865930191587e-15 1.0 7.049916206369745e-17
  outer loop
    vertex 180.1 10.000000000000027 10.000000000000027
    vertex 170.1 10.000000000000004 169.99999999999997
    vertex 180.1 10.000000000000027 170.0
  endloop
endfacet
facet normal -1.0 -2.255973186038317e-15 0.0
  outer loop
    vertex 170.1 180.10000000000005 169.99999999999997
    vertex 170.1 170.10000000000005 10.000000000000027
    vertex 170.1 170.10000000000005 169.99999999999997
  endloop
endfacet
facet normal -1.0 -2.255973186038317e-15 0.0
  outer loop
    vertex 170.1 170.10000000000005 10.000000000000027
    vertex 170.1 180.10000000000005 169.99999999999997
    vertex 170.1 180.10000000000005 10.000000000000027
  endloop
endfacet
facet normal -1.0 -7.045512760894182e-17 1.1279865930191583e-15
  outer loop
    vertex 170.1 170.10000000000005 10.000000000000027
    vertex 170.1 10.00000000000005 2.255973186038318e-14
    vertex 170.1 10.000000000000027 10.000000000000027
  endloop
endfacet
facet normal -1.0 -7.045512760894182e-17 1.1279865930191583e-15
  outer loop
    vertex 170.1 10.00000000000005 2.255973186038318e-14
    vertex 170.1 170.10000000000005 10.000000000000027
    vertex 170.1 170.10000000000005 2.2559731860383176e-14
  endloop
endfacet
facet normal 0.0 -1.4091025521788366e-16 -1.0
  outer loop
    vertex 9.999999999999998 170.10000000000005 169.99999999999997
    vertex 0.0 10.000000000000004 169.99999999999997
    vertex 0.0 170.10000000000005 169.99999999999997
  endloop
endfacet
facet normal 0.0 -1.4091025521788366e-16 -1.0
  outer loop
    vertex 0.0 10.000000000000004 169.99999999999997
    vertex 9.999999999999998 170.10000000000005 169.99999999999997
    vertex 9.999999999999998 10.000000000000004 169.99999999999997
  endloop
endfacet
facet normal -0.0 1.0 -0.0
  outer loop
    vertex 0.0 10.000000000000004 169.99999999999997
    vertex 9.999999999999998 10.000000000000004 10.000000000000004
    vertex 0.0 10.000000000000004 10.000000000000004
  endloop
endfacet
facet normal -0.0 1.0 -0.0
  outer loop
    vertex 9.999999999999998 10.000000000000004 10.000000000000004
    vertex 0.0 10.000000000000004 169.99999999999997
    vertex 9.999999999999998 10.000000000000004 169.99999999999997
  endloop
endfacet
facet normal -1.0 -1.1279865930191585e-15 7.049916206369733e-17
  outer loop
    vertex 170.1 10.000000000000004 169.99999999999997
    vertex 170.1 2.2227971097730488e-14 10.000000000000027
    vertex 170.10000000000002 1.127986593019159e-14 170.0
  endloop
endfacet
facet normal -1.0 -1.1279865930191585e-15 7.049916206369733e-17
  outer loop
    vertex 170.1 2.2227971097730488e-14 10.000000000000027
    vertex 170.1 10.000000000000004 169.99999999999997
    vertex 170.1 10.000000000000027 10.000000000000027
  endloop
endfacet
endsolid куб
