solid пирамида змей
facet normal 0.0 0.0 -1.0
  outer loop
    vertex 0.0 180.20000000000002 0.0
    vertex 10.037385785192713 170.16261421480732 0.0
    vertex 0.0 0.0 0.0
  endloop
endfacet
facet normal 0.0 0.0 -1.0
  outer loop
    vertex 10.037385785192713 170.16261421480732 0.0
    vertex 0.0 180.20000000000002 0.0
    vertex 180.20000000000002 180.20000000000002 0.0
  endloop
endfacet
facet normal 0.0 0.0 -1.0
  outer loop
    vertex 10.037385785192713 170.16261421480732 0.0
    vertex 180.20000000000002 180.20000000000002 0.0
    vertex 170.16261421480732 170.16261421480732 0.0
  endloop
endfacet
facet normal 0.0 0.0 -1.0
  outer loop
    vertex 170.16261421480732 170.16261421480732 0.0
    vertex 180.20000000000002 180.20000000000002 0.0
    vertex 170.16261421480732 10.037385785192713 0.0
  endloop
endfacet
facet normal 0.0 0.0 -1.0
  outer loop
    vertex 0.0 0.0 0.0
    vertex 10.037385785192713 10.037385785192713 0.0
    vertex 180.20000000000002 0.0 0.0
  endloop
endfacet
facet normal 0.0 0.0 -1.0
  outer loop
    vertex 10.037385785192713 10.037385785192713 0.0
    vertex 0.0 0.0 0.0
    vertex 10.037385785192713 170.16261421480732 0.0
  endloop
endfacet
facet normal 0.0 0.0 -1.0
  outer loop
    vertex 180.20000000000002 0.0 0.0
    vertex 10.037385785192713 10.037385785192713 0.0
    vertex 170.16261421480732 10.037385785192713 0.0
  endloop
endfacet
facet normal 0.0 0.0 -1.0
  outer loop
    vertex 180.20000000000002 0.0 0.0
    vertex 170.16261421480732 10.037385785192713 0.0
    vertex 180.20000000000002 180.20000000000002 0.0
  endloop
endfacet
facet normal -0.0 1.0 -0.0
  outer loop
    vertex 160.1252284296146 180.20000000000002 10.000000000000004
    vertex 170.16261421480732 180.20000000000002 9.999999999999998
    vertex 10.037385785192713 180.20000000000002 9.999999999999998
  endloop
endfacet
facet normal -0.0 1.0 -0.0
  outer loop
    vertex 0.0 180.20000000000002 9.999999999999998
    vertex 180.20000000000002 180.20000000000002 0.0
    vertex 0.0 180.20000000000002 0.0
  endloop
endfacet
facet normal -0.0 1.0 -0.0
  outer loop
    vertex 180.20000000000002 180.20000000000002 0.0
    vertex 0.0 180.20000000000002 9.999999999999998
    vertex 180.20000000000002 180.20000000000002 9.999999999999998
  endloop
endfacet
facet normal -0.0 1.0 -0.0
  outer loop
    vertex 180.20000000000002 180.20000000000002 9.999999999999998
    vertex 0.0 180.20000000000002 9.999999999999998
    vertex 10.037385785192713 180.20000000000002 9.999999999999998
  endloop
endfacet
facet normal -0.0 1.0 -0.0
  outer loop
    vertex 180.20000000000002 180.20000000000002 9.999999999999998
    vertex 10.037385785192713 180.20000000000002 9.999999999999998
    vertex 170.16261421480732 180.20000000000002 9.999999999999998
  endloop
endfacet
facet normal 1.0 -0.0 -0.0
  outer loop
    vertex 180.20000000000002 180.20000000000002 0.0
    vertex 180.20000000000002 0.0 9.999999999999998
    vertex 180.20000000000002 0.0 0.0
  endloop
endfacet
facet normal 1.0 -0.0 -0.0
  outer loop
    vertex 180.20000000000002 0.0 9.999999999999998
    vertex 180.20000000000002 180.20000000000002 0.0
    vertex 180.20000000000002 10.037385785192713 9.999999999999998
  endloop
endfacet
facet normal 1.0 -0.0 -0.0
  outer loop
    vertex 180.20000000000002 10.037385785192713 9.999999999999998
    vertex 180.20000000000002 180.20000000000002 0.0
    vertex 180.20000000000002 160.1252284296146 9.99999999999999
  endloop
endfacet
facet normal 1.0 -0.0 -0.0
  outer loop
    vertex 180.20000000000002 160.1252284296146 9.99999999999999
    vertex 180.20000000000002 180.20000000000002 0.0
    vertex 180.20000000000002 170.16261421480732 9.999999999999998
  endloop
endfacet
facet normal 1.0 -0.0 -0.0
  outer loop
    vertex 180.20000000000002 170.16261421480732 9.999999999999998
    vertex 180.20000000000002 180.20000000000002 0.0
    vertex 180.20000000000002 180.20000000000002 9.999999999999998
  endloop
endfacet
facet normal 0.0 -1.0 0.0
  outer loop
    vertex 180.20000000000002 0.0 9.999999999999998
    vertex 0.0 0.0 0.0
    vertex 180.20000000000002 0.0 0.0
  endloop
endfacet
facet normal 0.0 -1.0 0.0
  outer loop
    vertex 0.0 0.0 0.0
    vertex 180.20000000000002 0.0 9.999999999999998
    vertex 0.0 0.0 9.999999999999998
  endloop
endfacet
facet normal 0.0 -1.0 0.0
  outer loop
    vertex 0.0 0.0 9.999999999999998
    vertex 180.20000000000002 0.0 9.999999999999998
    vertex 170.16261421480732 0.0 9.999999999999998
  endloop
endfacet
facet normal 0.0 -1.0 0.0
  outer loop
    vertex 0.0 0.0 9.999999999999998
    vertex 170.16261421480732 0.0 9.999999999999998
    vertex 10.037385785192713 0.0 9.999999999999998
  endloop
endfacet
facet normal -1.0 0.0 0.0
  outer loop
    vertex 0.0 10.037385785192713 9.999999999999998
    vertex 0.0 0.0 0.0
    vertex 0.0 0.0 9.999999999999998
  endloop
endfacet
facet normal -1.0 0.0 0.0
  outer loop
    vertex 0.0 0.0 0.0
    vertex 0.0 10.037385785192713 9.999999999999998
    vertex 0.0 180.20000000000002 0.0
  endloop
endfacet
facet normal -1.0 0.0 0.0
  outer loop
    vertex 0.0 180.20000000000002 0.0
    vertex 0.0 10.037385785192713 9.999999999999998
    vertex 0.0 170.16261421480732 9.999999999999998
  endloop
endfacet
facet normal -1.0 0.0 0.0
  outer loop
    vertex 0.0 180.20000000000002 0.0
    vertex 0.0 170.16261421480732 9.999999999999998
    vertex 0.0 180.20000000000002 9.999999999999998
  endloop
endfacet
facet normal -1.0 0.0 0.0
  outer loop
    vertex 170.16261421480732 158.38247360208777 9.999999999999998
    vertex 170.16261421480732 10.037385785192713 0.0
    vertex 170.16261421480732 10.037385785192713 9.999999999999998
  endloop
endfacet
facet normal -1.0 0.0 0.0
  outer loop
    vertex 170.16261421480732 10.037385785192713 0.0
    vertex 170.16261421480732 158.38247360208777 9.999999999999998
    vertex 170.16261421480732 170.16261421480732 0.0
  endloop
endfacet
facet normal -1.0 0.0 0.0
  outer loop
    vertex 170.16261421480732 170.16261421480732 0.0
    vertex 170.16261421480732 158.38247360208777 9.999999999999998
    vertex 170.16261421480732 165.9181827055583 6.000950040115801
  endloop
endfacet
facet normal -1.0 0.0 0.0
  outer loop
    vertex 170.16261421480732 170.16261421480732 0.0
    vertex 170.16261421480732 165.9181827055583 6.000950040115801
    vertex 170.16261421480732 170.16261421480732 3.7485152096661447
  endloop
endfacet
facet normal 0.0 -1.0 0.0
  outer loop
    vertex 158.38247360208783 170.16261421480732 9.999999999999998
    vertex 165.9181827055583 170.16261421480732 6.000950040115804
    vertex 170.16261421480732 170.16261421480732 9.999999999999998
  endloop
endfacet
facet normal 1.0 -0.0 -0.0
  outer loop
    vertex 10.037385785192713 170.16261421480732 0.0
    vertex 10.037385785192713 10.037385785192713 9.999999999999998
    vertex 10.037385785192713 10.037385785192713 0.0
  endloop
endfacet
facet normal 1.0 -0.0 -0.0
  outer loop
    vertex 10.037385785192713 10.037385785192713 9.999999999999998
    vertex 10.037385785192713 170.16261421480732 0.0
    vertex 10.037385785192713 170.16261421480732 9.999999999999998
  endloop
endfacet
facet normal -0.0 1.0 -0.0
  outer loop
    vertex 10.037385785192713 10.037385785192713 9.999999999999998
    vertex 170.16261421480732 10.037385785192713 0.0
    vertex 10.037385785192713 10.037385785192713 0.0
  endloop
endfacet
facet normal -0.0 1.0 -0.0
  outer loop
    vertex 170.16261421480732 10.037385785192713 0.0
    vertex 10.037385785192713 10.037385785192713 9.999999999999998
    vertex 170.16261421480732 10.037385785192713 9.999999999999998
  endloop
endfacet
facet normal -0.0 -8.428389252631746e-16 1.0
  outer loop
    vertex 180.20000000000002 170.16261421480732 9.999999999999998
    vertex 170.16261421480732 170.16261421480732 9.999999999999998
    vertex 180.20000000000002 160.1252284296146 9.99999999999999
  endloop
endfacet
facet normal -0.0 -0.0 1.0
  outer loop
    vertex 170.16261421480732 0.0 9.999999999999998
    vertex 10.037385785192713 10.037385785192713 9.999999999999998
    vertex 10.037385785192713 0.0 9.999999999999998
  endloop
endfacet
facet normal -0.0 -0.0 1.0
  outer loop
    vertex 10.037385785192713 10.037385785192713 9.999999999999998
    vertex 170.16261421480732 0.0 9.999999999999998
    vertex 170.16261421480732 10.037385785192713 9.999999999999998
  endloop
endfacet
facet normal -0.0 -0.0 1.0
  outer loop
    vertex 10.037385785192713 10.037385785192713 9.999999999999998
    vertex 0.0 170.16261421480732 9.999999999999998
    vertex 0.0 10.037385785192713 9.999999999999998
  endloop
endfacet
facet normal -0.0 -0.0 1.0
  outer loop
    vertex 0.0 170.16261421480732 9.999999999999998
    vertex 10.037385785192713 10.037385785192713 9.999999999999998
    vertex 10.037385785192713 170.16261421480732 9.999999999999998
  endloop
endfacet
facet normal -1.3180627551134727e-17 -2.1730004509136103e-16 1.0
  outer loop
    vertex 158.38247360208783 170.16261421480732 9.999999999999998
    vertex 10.037385785192713 180.20000000000002 9.999999999999998
    vertex 10.037385785192713 170.16261421480732 9.999999999999998
  endloop
endfacet
facet normal -1.3180627551134727e-17 -2.1730004509136103e-16 1.0
  outer loop
    vertex 10.037385785192713 180.20000000000002 9.999999999999998
    vertex 158.38247360208783 170.16261421480732 9.999999999999998
    vertex 160.1252284296146 180.20000000000002 10.000000000000004
  endloop
endfacet
facet normal -1.3180627551134727e-17 -2.1730004509136103e-16 1.0
  outer loop
    vertex 160.1252284296146 180.20000000000002 10.000000000000004
    vertex 158.38247360208783 170.16261421480732 9.999999999999998
    vertex 170.16261421480732 170.16261421480732 9.999999999999998
  endloop
endfacet
facet normal 0.0 0.0 -1.0
  outer loop
    vertex 180.20000000000002 170.16261421480732 9.999999999999998
    vertex 170.16261421480732 170.16261421480732 9.999999999999998
    vertex 180.20000000000002 180.20000000000002 9.999999999999998
  endloop
endfacet
facet normal 0.0 0.0 -1.0
  outer loop
    vertex 180.20000000000002 180.20000000000002 9.999999999999998
    vertex 170.16261421480732 170.16261421480732 9.999999999999998
    vertex 170.16261421480732 180.20000000000002 9.999999999999998
  endloop
endfacet
facet normal 0.0 0.0 -1.0
  outer loop
    vertex 180.20000000000002 0.0 9.999999999999998
    vertex 170.16261421480732 0.0 9.999999999999998
    vertex 170.16261421480732 10.037385785192713 9.999999999999998
  endloop
endfacet
facet normal 0.0 0.0 -1.0
  outer loop
    vertex 180.20000000000002 0.0 9.999999999999998
    vertex 170.16261421480732 10.037385785192713 9.999999999999998
    vertex 180.20000000000002 10.037385785192713 9.999999999999998
  endloop
endfacet
facet normal -0.0 -0.0 1.0
  outer loop
    vertex 10.037385785192713 10.037385785192713 9.999999999999998
    vertex 0.0 0.0 9.999999999999998
    vertex 10.037385785192713 0.0 9.999999999999998
  endloop
endfacet
facet normal -0.0 -0.0 1.0
  outer loop
    vertex 10.037385785192713 10.037385785192713 9.999999999999998
    vertex 0.0 10.037385785192713 9.999999999999998
    vertex 0.0 0.0 9.999999999999998
  endloop
endfacet
facet normal -0.0 -0.0 1.0
  outer loop
    vertex 10.037385785192713 170.16261421480732 9.999999999999998
    vertex 0.0 180.20000000000002 9.999999999999998
    vertex 0.0 170.16261421480732 9.999999999999998
  endloop
endfacet
facet normal -0.0 -0.0 1.0
  outer loop
    vertex 10.037385785192713 180.20000000000002 9.999999999999998
    vertex 0.0 180.20000000000002 9.999999999999998
    vertex 10.037385785192713 170.16261421480732 9.999999999999998
  endloop
endfacet
facet normal 8.165311942720339e-19 0.9046424517900223 -0.4261713674325594
  outer loop
    vertex 90.10000000000001 90.10000000000001 201.25706496267526
    vertex 95.11869289259639 85.08130710740366 190.60378557769172
    vertex 85.08130710740366 85.08130710740366 190.60378557769172
  endloop
endfacet
facet normal 4.34600090182722e-16 2.636125510226945e-17 1.0
  outer loop
    vertex 180.20000000000002 10.037385785192713 9.999999999999998
    vertex 170.16261421480732 158.38247360208777 9.999999999999998
    vertex 170.16261421480732 10.037385785192713 9.999999999999998
  endloop
endfacet
facet normal 4.34600090182722e-16 2.636125510226945e-17 1.0
  outer loop
    vertex 170.16261421480732 158.38247360208777 9.999999999999998
    vertex 180.20000000000002 10.037385785192713 9.999999999999998
    vertex 170.16261421480732 170.16261421480732 9.999999999999998
  endloop
endfacet
facet normal 4.34600090182722e-16 2.636125510226945e-17 1.0
  outer loop
    vertex 170.16261421480732 170.16261421480732 9.999999999999998
    vertex 180.20000000000002 10.037385785192713 9.999999999999998
    vertex 180.20000000000002 160.1252284296146 9.99999999999999
  endloop
endfacet
facet normal 4.214194626315874e-16 4.738535476816472e-32 1.0
  outer loop
    vertex 170.16261421480732 180.20000000000002 9.999999999999998
    vertex 160.1252284296146 180.20000000000002 10.000000000000004
    vertex 170.16261421480732 170.16261421480732 9.999999999999998
  endloop
endfacet
facet normal 0.9046424517900226 1.0296222374073604e-18 0.42617136743255885
  outer loop
    vertex 180.20000000000002 10.037385785192713 9.999999999999998
    vertex 95.11869289259639 85.08130710740366 190.60378557769172
    vertex 180.20000000000002 0.0 9.999999999999998
  endloop
endfacet
facet normal 0.9046424517900226 1.0296222374073604e-18 0.42617136743255885
  outer loop
    vertex 95.11869289259639 85.08130710740366 190.60378557769172
    vertex 180.20000000000002 10.037385785192713 9.999999999999998
    vertex 142.67803933889456 47.559346446298186 89.6486134038623
  endloop
endfacet
facet normal 0.9046424517900226 1.0296222374073604e-18 0.42617136743255885
  outer loop
    vertex 95.11869289259639 85.08130710740366 190.60378557769172
    vertex 142.67803933889456 47.559346446298186 89.6486134038623
    vertex 100.13738578519273 90.10000000000002 179.95050619270816
  endloop
endfacet
facet normal 0.9046424517900226 1.0296222374073604e-18 0.42617136743255885
  outer loop
    vertex 95.11869289259639 85.08130710740366 190.60378557769172
    vertex 100.13738578519273 90.10000000000002 179.95050619270816
    vertex 90.10000000000001 90.10000000000001 201.25706496267526
  endloop
endfacet
facet normal 0.9046424517900226 1.0296222374073604e-18 0.42617136743255885
  outer loop
    vertex 90.10000000000001 90.10000000000001 201.25706496267526
    vertex 100.13738578519273 90.10000000000002 179.95050619270816
    vertex 180.20000000000002 180.20000000000002 9.999999999999998
  endloop
endfacet
facet normal 0.9046424517900226 1.0296222374073604e-18 0.42617136743255885
  outer loop
    vertex 180.20000000000002 180.20000000000002 9.999999999999998
    vertex 100.13738578519273 90.10000000000002 179.95050619270816
    vertex 180.20000000000002 170.16261421480732 9.999999999999998
  endloop
endfacet
facet normal -0.7071067811865476 0.7071067811865476 -0.0
  outer loop
    vertex 85.08130710740366 85.08130710740366 190.60378557769172
    vertex 10.037385785192713 10.037385785192713 9.999999999999998
    vertex 0.0 0.0 9.999999999999998
  endloop
endfacet
facet normal -0.7071067811865476 0.7071067811865476 -0.0
  outer loop
    vertex 10.037385785192713 10.037385785192713 9.999999999999998
    vertex 85.08130710740366 85.08130710740366 190.60378557769172
    vertex 63.41246192839758 63.41246192839758 123.30033746180544
  endloop
endfacet
facet normal -0.7071067811865476 0.7071067811865476 -0.0
  outer loop
    vertex 63.41246192839758 63.41246192839758 123.30033746180544
    vertex 85.08130710740366 85.08130710740366 190.60378557769172
    vertex 90.10000000000001 90.10000000000001 179.95050619270816
  endloop
endfacet
facet normal -0.7071067811865476 0.7071067811865476 -0.0
  outer loop
    vertex 90.10000000000001 90.10000000000001 179.95050619270816
    vertex 85.08130710740366 85.08130710740366 190.60378557769172
    vertex 90.10000000000001 90.10000000000001 201.25706496267526
  endloop
endfacet
facet normal -0.7071067811865476 0.7071067811865476 -0.0
  outer loop
    vertex 90.10000000000001 90.10000000000001 179.95050619270816
    vertex 90.10000000000001 90.10000000000001 201.25706496267526
    vertex 180.20000000000002 180.20000000000002 9.999999999999998
  endloop
endfacet
facet normal -0.7071067811865476 0.7071067811865476 -0.0
  outer loop
    vertex 90.10000000000001 90.10000000000001 179.95050619270816
    vertex 180.20000000000002 180.20000000000002 9.999999999999998
    vertex 170.16261421480732 170.16261421480732 9.999999999999998
  endloop
endfacet
facet normal -0.9046424517900212 0.0 -0.4261713674325611
  outer loop
    vertex 90.10000000000002 100.13738578519276 179.9505061927081
    vertex 170.16261421480732 170.16261421480732 9.999999999999998
    vertex 90.10000000000001 90.10000000000001 179.95050619270816
  endloop
endfacet
facet normal -0.9046424517900212 0.0 -0.4261713674325611
  outer loop
    vertex 170.16261421480732 170.16261421480732 9.999999999999998
    vertex 90.10000000000002 100.13738578519276 179.9505061927081
    vertex 170.16261421480732 180.20000000000002 9.999999999999998
  endloop
endfacet
facet normal -0.0 0.9046424517900227 0.4261713674325582
  outer loop
    vertex 42.54065355370183 127.62196066110546 100.30189278884586
    vertex 90.10000000000001 90.10000000000001 179.95050619270816
    vertex 50.06869289259637 130.13130710740364 94.97525309635408
  endloop
endfacet
facet normal -0.0 0.9046424517900227 0.4261713674325582
  outer loop
    vertex 90.10000000000001 90.10000000000001 179.95050619270816
    vertex 42.54065355370183 127.62196066110546 100.30189278884586
    vertex 80.0626142148073 90.10000000000001 179.95050619270816
  endloop
endfacet
facet normal 7.35539267954395e-15 -0.9046424517900241 -0.4261713674325551
  outer loop
    vertex 100.13738578519273 90.10000000000002 179.95050619270816
    vertex 170.16261421480732 170.16261421480732 9.999999999999998
    vertex 180.20000000000002 170.16261421480732 9.999999999999998
  endloop
endfacet
facet normal 7.35539267954395e-15 -0.9046424517900241 -0.4261713674325551
  outer loop
    vertex 170.16261421480732 170.16261421480732 9.999999999999998
    vertex 100.13738578519273 90.10000000000002 179.95050619270816
    vertex 90.10000000000001 90.10000000000001 179.95050619270816
  endloop
endfacet
facet normal 3.0888667122220662e-18 0.9046424517900225 0.42617136743255873
  outer loop
    vertex 90.10000000000001 90.10000000000001 201.25706496267526
    vertex 10.037385785192713 180.20000000000002 9.999999999999998
    vertex 0.0 180.20000000000002 9.999999999999998
  endloop
endfacet
facet normal 3.0888667122220662e-18 0.9046424517900225 0.42617136743255873
  outer loop
    vertex 10.037385785192713 180.20000000000002 9.999999999999998
    vertex 90.10000000000001 90.10000000000001 201.25706496267526
    vertex 47.55934644629821 142.6780393388945 89.64861340386234
  endloop
endfacet
facet normal 3.0888667122220662e-18 0.9046424517900225 0.42617136743255873
  outer loop
    vertex 47.55934644629821 142.6780393388945 89.64861340386234
    vertex 90.10000000000001 90.10000000000001 201.25706496267526
    vertex 90.10000000000002 100.13738578519276 179.9505061927081
  endloop
endfacet
facet normal 3.0888667122220662e-18 0.9046424517900225 0.42617136743255873
  outer loop
    vertex 90.10000000000002 100.13738578519276 179.9505061927081
    vertex 180.20000000000002 180.20000000000002 9.999999999999998
    vertex 170.16261421480732 180.20000000000002 9.999999999999998
  endloop
endfacet
facet normal 3.0888667122220662e-18 0.9046424517900225 0.42617136743255873
  outer loop
    vertex 180.20000000000002 180.20000000000002 9.999999999999998
    vertex 90.10000000000002 100.13738578519276 179.9505061927081
    vertex 90.10000000000001 90.10000000000001 201.25706496267526
  endloop
endfacet
facet normal -0.9046424517900223 1.101217961917693e-15 0.42617136743255896
  outer loop
    vertex 90.10000000000001 80.0626142148073 179.95050619270816
    vertex 63.41246192839758 63.41246192839758 123.30033746180544
    vertex 65.08535955926304 55.04797377407032 126.85143059013329
  endloop
endfacet
facet normal -0.9046424517900223 1.101217961917693e-15 0.42617136743255896
  outer loop
    vertex 63.41246192839758 63.41246192839758 123.30033746180544
    vertex 90.10000000000001 80.0626142148073 179.95050619270816
    vertex 90.10000000000001 90.10000000000001 179.95050619270816
  endloop
endfacet
facet normal 0.0 -0.9046424517900221 0.42617136743255934
  outer loop
    vertex 90.10000000000001 90.10000000000001 179.95050619270816
    vertex 55.04797377407032 65.08535955926304 126.85143059013329
    vertex 63.41246192839758 63.41246192839758 123.30033746180544
  endloop
endfacet
facet normal 0.0 -0.9046424517900221 0.42617136743255934
  outer loop
    vertex 55.04797377407032 65.08535955926304 126.85143059013329
    vertex 90.10000000000001 90.10000000000001 179.95050619270816
    vertex 80.0626142148073 90.10000000000001 179.95050619270816
  endloop
endfacet
facet normal 0.9046424517900225 2.859970002645311e-17 -0.42617136743255873
  outer loop
    vertex 0.0 10.037385785192713 9.999999999999998
    vertex 85.08130710740366 85.08130710740366 190.60378557769172
    vertex 0.0 0.0 9.999999999999998
  endloop
endfacet
facet normal 0.9046424517900225 2.859970002645311e-17 -0.42617136743255873
  outer loop
    vertex 85.08130710740366 85.08130710740366 190.60378557769172
    vertex 0.0 10.037385785192713 9.999999999999998
    vertex 55.04797377407032 65.08535955926304 126.85143059013329
  endloop
endfacet
facet normal 0.9046424517900225 2.859970002645311e-17 -0.42617136743255873
  outer loop
    vertex 85.08130710740366 85.08130710740366 190.60378557769172
    vertex 55.04797377407032 65.08535955926304 126.85143059013329
    vertex 80.0626142148073 90.10000000000001 179.95050619270816
  endloop
endfacet
facet normal 0.9046424517900225 2.859970002645311e-17 -0.42617136743255873
  outer loop
    vertex 85.08130710740366 85.08130710740366 190.60378557769172
    vertex 80.0626142148073 90.10000000000001 179.95050619270816
    vertex 90.10000000000001 90.10000000000001 201.25706496267526
  endloop
endfacet
facet normal 0.9046424517900225 2.859970002645311e-17 -0.42617136743255873
  outer loop
    vertex 90.10000000000001 90.10000000000001 201.25706496267526
    vertex 80.0626142148073 90.10000000000001 179.95050619270816
    vertex 42.54065355370183 127.62196066110546 100.30189278884586
  endloop
endfacet
facet normal 0.9046424517900225 2.859970002645311e-17 -0.42617136743255873
  outer loop
    vertex 90.10000000000001 90.10000000000001 201.25706496267526
    vertex 42.54065355370183 127.62196066110546 100.30189278884586
    vertex 0.0 180.20000000000002 9.999999999999998
  endloop
endfacet
facet normal 0.9046424517900225 2.859970002645311e-17 -0.42617136743255873
  outer loop
    vertex 0.0 180.20000000000002 9.999999999999998
    vertex 42.54065355370183 127.62196066110546 100.30189278884586
    vertex 39.595618400521964 130.56699581428532 94.05040799851197
  endloop
endfacet
facet normal 0.9046424517900225 2.859970002645311e-17 -0.42617136743255873
  outer loop
    vertex 0.0 180.20000000000002 9.999999999999998
    vertex 39.595618400521964 130.56699581428532 94.05040799851197
    vertex 0.0 170.16261421480732 9.999999999999998
  endloop
endfacet
facet normal 0.9046424517900221 -1.7271867895598457e-15 -0.42617136743255934
  outer loop
    vertex 50.06869289259637 130.13130710740364 94.97525309635408
    vertex 90.10000000000002 100.13738578519276 179.9505061927081
    vertex 90.10000000000001 90.10000000000001 179.95050619270816
  endloop
endfacet
facet normal 0.9046424517900221 -1.7271867895598457e-15 -0.42617136743255934
  outer loop
    vertex 90.10000000000002 100.13738578519276 179.9505061927081
    vertex 50.06869289259637 130.13130710740364 94.97525309635408
    vertex 47.55934644629821 142.6780393388945 89.64861340386234
  endloop
endfacet
facet normal 4.009763691917576e-15 -0.9046424517900227 0.4261713674325581
  outer loop
    vertex 63.41246192839758 63.41246192839758 123.30033746180544
    vertex 0.0 10.037385785192713 9.999999999999998
    vertex 10.037385785192713 10.037385785192713 9.999999999999998
  endloop
endfacet
facet normal 4.009763691917576e-15 -0.9046424517900227 0.4261713674325581
  outer loop
    vertex 0.0 10.037385785192713 9.999999999999998
    vertex 63.41246192839758 63.41246192839758 123.30033746180544
    vertex 55.04797377407032 65.08535955926304 126.85143059013329
  endloop
endfacet
facet normal -0.904642451790022 0.0 0.4261713674325598
  outer loop
    vertex 65.08535955926304 55.04797377407032 126.85143059013329
    vertex 10.037385785192713 10.037385785192713 9.999999999999998
    vertex 10.037385785192713 0.0 9.999999999999998
  endloop
endfacet
facet normal -0.904642451790022 0.0 0.4261713674325598
  outer loop
    vertex 10.037385785192713 10.037385785192713 9.999999999999998
    vertex 65.08535955926304 55.04797377407032 126.85143059013329
    vertex 63.41246192839758 63.41246192839758 123.30033746180544
  endloop
endfacet
facet normal -0.0 0.9046424517900223 -0.4261713674325588
  outer loop
    vertex 130.13130710740364 50.06869289259637 94.97525309635408
    vertex 100.13738578519273 90.10000000000002 179.95050619270816
    vertex 142.67803933889456 47.559346446298186 89.6486134038623
  endloop
endfacet
facet normal -0.0 0.9046424517900223 -0.4261713674325588
  outer loop
    vertex 100.13738578519273 90.10000000000002 179.95050619270816
    vertex 130.13130710740364 50.06869289259637 94.97525309635408
    vertex 90.10000000000001 90.10000000000001 179.95050619270816
  endloop
endfacet
facet normal 0.904642451790022 -3.915441642374027e-15 0.4261713674325598
  outer loop
    vertex 130.13130710740364 50.06869289259637 94.97525309635408
    vertex 90.10000000000001 80.0626142148073 179.95050619270816
    vertex 127.62196066110546 42.54065355370183 100.30189278884586
  endloop
endfacet
facet normal 0.904642451790022 -3.915441642374027e-15 0.4261713674325598
  outer loop
    vertex 90.10000000000001 80.0626142148073 179.95050619270816
    vertex 130.13130710740364 50.06869289259637 94.97525309635408
    vertex 90.10000000000001 90.10000000000001 179.95050619270816
  endloop
endfacet
facet normal -1.338542951727037e-17 0.9046424517900223 -0.4261713674325587
  outer loop
    vertex 85.08130710740366 85.08130710740366 190.60378557769172
    vertex 10.037385785192713 0.0 9.999999999999998
    vertex 0.0 0.0 9.999999999999998
  endloop
endfacet
facet normal -1.338542951727037e-17 0.9046424517900223 -0.4261713674325587
  outer loop
    vertex 10.037385785192713 0.0 9.999999999999998
    vertex 85.08130710740366 85.08130710740366 190.60378557769172
    vertex 65.08535955926304 55.04797377407032 126.85143059013329
  endloop
endfacet
facet normal -1.338542951727037e-17 0.9046424517900223 -0.4261713674325587
  outer loop
    vertex 65.08535955926304 55.04797377407032 126.85143059013329
    vertex 85.08130710740366 85.08130710740366 190.60378557769172
    vertex 90.10000000000001 80.0626142148073 179.95050619270816
  endloop
endfacet
facet normal -1.338542951727037e-17 0.9046424517900223 -0.4261713674325587
  outer loop
    vertex 130.5669958142853 39.59561840052199 94.05040799851201
    vertex 180.20000000000002 0.0 9.999999999999998
    vertex 170.16261421480732 0.0 9.999999999999998
  endloop
endfacet
facet normal -1.338542951727037e-17 0.9046424517900223 -0.4261713674325587
  outer loop
    vertex 180.20000000000002 0.0 9.999999999999998
    vertex 130.5669958142853 39.59561840052199 94.05040799851201
    vertex 95.11869289259639 85.08130710740366 190.60378557769172
  endloop
endfacet
facet normal -1.338542951727037e-17 0.9046424517900223 -0.4261713674325587
  outer loop
    vertex 95.11869289259639 85.08130710740366 190.60378557769172
    vertex 130.5669958142853 39.59561840052199 94.05040799851201
    vertex 127.62196066110546 42.54065355370183 100.30189278884586
  endloop
endfacet
facet normal -1.338542951727037e-17 0.9046424517900223 -0.4261713674325587
  outer loop
    vertex 95.11869289259639 85.08130710740366 190.60378557769172
    vertex 127.62196066110546 42.54065355370183 100.30189278884586
    vertex 90.10000000000001 80.0626142148073 179.95050619270816
  endloop
endfacet
facet normal -1.338542951727037e-17 0.9046424517900223 -0.4261713674325587
  outer loop
    vertex 95.11869289259639 85.08130710740366 190.60378557769172
    vertex 90.10000000000001 80.0626142148073 179.95050619270816
    vertex 85.08130710740366 85.08130710740366 190.60378557769172
  endloop
endfacet
facet normal 0.4244431509248373 0.42444315092483714 0.7998099919768392
  outer loop
    vertex 52.92575801944618 62.96314380463887 122.85238063024906
    vertex 39.595618400521964 130.56699581428532 94.05040799851197
    vertex 39.41690204145457 130.50742369459624 94.17686292376557
  endloop
endfacet
facet normal 0.4244431509248373 0.42444315092483714 0.7998099919768392
  outer loop
    vertex 39.595618400521964 130.56699581428532 94.05040799851197
    vertex 52.92575801944618 62.96314380463887 122.85238063024906
    vertex 46.94494138034912 133.01677014089444 88.85022323127382
  endloop
endfacet
facet normal 0.4244431509248373 0.42444315092483714 0.7998099919768392
  outer loop
    vertex 46.94494138034912 133.01677014089444 88.85022323127382
    vertex 158.0030126749901 178.0777842453755 6.000950040115807
    vertex 45.437130691674014 140.55582358427 85.64956344397801
  endloop
endfacet
facet normal 0.4244431509248373 0.42444315092483714 0.7998099919768392
  outer loop
    vertex 158.0030126749901 178.0777842453755 6.000950040115807
    vertex 46.94494138034912 133.01677014089444 88.85022323127382
    vertex 52.92575801944618 62.96314380463887 122.85238063024906
  endloop
endfacet
facet normal 0.4244431509248373 0.42444315092483714 0.7998099919768392
  outer loop
    vertex 158.0030126749901 178.0777842453755 6.000950040115807
    vertex 52.92575801944618 62.96314380463887 122.85238063024906
    vertex 61.29024617377341 61.29024617377341 119.30128750192122
  endloop
endfacet
facet normal 0.4244431509248373 0.42444315092483714 0.7998099919768392
  outer loop
    vertex 158.0030126749901 178.0777842453755 6.000950040115807
    vertex 61.29024617377341 61.29024617377341 119.30128750192122
    vertex 62.96314380463887 52.92575801944618 122.85238063024906
  endloop
endfacet
facet normal 0.4244431509248373 0.42444315092483714 0.7998099919768392
  outer loop
    vertex 158.0030126749901 178.0777842453755 6.000950040115807
    vertex 62.96314380463887 52.92575801944618 122.85238063024906
    vertex 130.50742369459613 39.416902041454584 94.17686292376561
  endloop
endfacet
facet normal 0.4244431509248373 0.42444315092483714 0.7998099919768392
  outer loop
    vertex 158.0030126749901 178.0777842453755 6.000950040115807
    vertex 130.50742369459613 39.416902041454584 94.17686292376561
    vertex 130.5669958142853 39.59561840052199 94.05040799851201
  endloop
endfacet
facet normal 0.4244431509248373 0.42444315092483714 0.7998099919768392
  outer loop
    vertex 158.0030126749901 178.0777842453755 6.000950040115807
    vertex 130.5669958142853 39.59561840052199 94.05040799851201
    vertex 133.01677014089435 46.94494138034913 88.85022323127384
  endloop
endfacet
facet normal 0.4244431509248373 0.42444315092483714 0.7998099919768392
  outer loop
    vertex 158.0030126749901 178.0777842453755 6.000950040115807
    vertex 133.01677014089435 46.94494138034913 88.85022323127384
    vertex 140.55582358427006 45.43713069167399 85.64956344397798
  endloop
endfacet
facet normal 0.4244431509248373 0.42444315092483714 0.7998099919768392
  outer loop
    vertex 158.0030126749901 178.0777842453755 6.000950040115807
    vertex 140.55582358427006 45.43713069167399 85.64956344397798
    vertex 178.0777842453755 158.0030126749901 6.000950040115794
  endloop
endfacet
facet normal 0.4244431509248373 0.42444315092483714 0.7998099919768392
  outer loop
    vertex 158.0030126749901 178.0777842453755 6.000950040115807
    vertex 178.0777842453755 158.0030126749901 6.000950040115794
    vertex 165.9181827055583 170.16261421480732 6.000950040115804
  endloop
endfacet
facet normal 0.4244431509248373 0.42444315092483714 0.7998099919768392
  outer loop
    vertex 165.9181827055583 170.16261421480732 6.000950040115804
    vertex 178.0777842453755 158.0030126749901 6.000950040115794
    vertex 170.16261421480732 165.9181827055583 6.000950040115801
  endloop
endfacet
facet normal 0.4244431509248373 0.42444315092483714 0.7998099919768392
  outer loop
    vertex 170.16261421480732 170.16261421480732 3.7485152096661447
    vertex 165.9181827055583 170.16261421480732 6.000950040115804
    vertex 170.16261421480732 165.9181827055583 6.000950040115801
  endloop
endfacet
facet normal -0.8665510569323779 0.4465562846625505 0.2228828175471541
  outer loop
    vertex 142.67803933889456 47.559346446298186 89.6486134038623
    vertex 178.0777842453755 158.0030126749901 6.000950040115794
    vertex 140.55582358427006 45.43713069167399 85.64956344397798
  endloop
endfacet
facet normal -0.8665510569323779 0.4465562846625505 0.2228828175471541
  outer loop
    vertex 178.0777842453755 158.0030126749901 6.000950040115794
    vertex 142.67803933889456 47.559346446298186 89.6486134038623
    vertex 180.20000000000002 160.1252284296146 9.99999999999999
  endloop
endfacet
facet normal -0.5655510689875505 -0.5655510689875509 0.6002532604943328
  outer loop
    vertex 178.0777842453755 158.0030126749901 6.000950040115794
    vertex 170.16261421480732 170.16261421480732 9.999999999999998
    vertex 170.16261421480732 165.9181827055583 6.000950040115801
  endloop
endfacet
facet normal -0.5655510689875505 -0.5655510689875509 0.6002532604943328
  outer loop
    vertex 170.16261421480732 170.16261421480732 9.999999999999998
    vertex 178.0777842453755 158.0030126749901 6.000950040115794
    vertex 180.20000000000002 160.1252284296146 9.99999999999999
  endloop
endfacet
facet normal -0.5655510689875505 -0.5655510689875507 0.6002532604943331
  outer loop
    vertex 165.9181827055583 170.16261421480732 6.000950040115804
    vertex 160.1252284296146 180.20000000000002 10.000000000000004
    vertex 158.0030126749901 178.0777842453755 6.000950040115807
  endloop
endfacet
facet normal -0.5655510689875505 -0.5655510689875507 0.6002532604943331
  outer loop
    vertex 160.1252284296146 180.20000000000002 10.000000000000004
    vertex 165.9181827055583 170.16261421480732 6.000950040115804
    vertex 170.16261421480732 170.16261421480732 9.999999999999998
  endloop
endfacet
facet normal 0.44655628466255093 -0.8665510569323779 0.22288281754715408
  outer loop
    vertex 160.1252284296146 180.20000000000002 10.000000000000004
    vertex 45.437130691674014 140.55582358427 85.64956344397801
    vertex 158.0030126749901 178.0777842453755 6.000950040115807
  endloop
endfacet
facet normal 0.44655628466255093 -0.8665510569323779 0.22288281754715408
  outer loop
    vertex 45.437130691674014 140.55582358427 85.64956344397801
    vertex 160.1252284296146 180.20000000000002 10.000000000000004
    vertex 47.55934644629821 142.6780393388945 89.64861340386234
  endloop
endfacet
facet normal 0.8871682537044023 -0.018316122154626385 -0.46108243220523815
  outer loop
    vertex 39.41690204145457 130.50742369459624 94.17686292376557
    vertex 55.04797377407032 65.08535955926304 126.85143059013329
    vertex 52.92575801944618 62.96314380463887 122.85238063024906
  endloop
endfacet
facet normal 0.8871682537044023 -0.018316122154626385 -0.46108243220523815
  outer loop
    vertex 55.04797377407032 65.08535955926304 126.85143059013329
    vertex 39.41690204145457 130.50742369459624 94.17686292376557
    vertex 42.54065355370183 127.62196066110546 100.30189278884586
  endloop
endfacet
facet normal -0.01831612215463177 0.8871682537043961 -0.4610824322052501
  outer loop
    vertex 52.92575801944618 62.96314380463887 122.85238063024906
    vertex 63.41246192839758 63.41246192839758 123.30033746180544
    vertex 61.29024617377341 61.29024617377341 119.30128750192122
  endloop
endfacet
facet normal -0.01831612215463177 0.8871682537043961 -0.4610824322052501
  outer loop
    vertex 63.41246192839758 63.41246192839758 123.30033746180544
    vertex 52.92575801944618 62.96314380463887 122.85238063024906
    vertex 55.04797377407032 65.08535955926304 126.85143059013329
  endloop
endfacet
facet normal 0.8871682537043961 -0.01831612215463173 -0.46108243220524997
  outer loop
    vertex 61.29024617377341 61.29024617377341 119.30128750192122
    vertex 65.08535955926304 55.04797377407032 126.85143059013329
    vertex 62.96314380463887 52.92575801944618 122.85238063024906
  endloop
endfacet
facet normal 0.8871682537043961 -0.01831612215463173 -0.46108243220524997
  outer loop
    vertex 65.08535955926304 55.04797377407032 126.85143059013329
    vertex 61.29024617377341 61.29024617377341 119.30128750192122
    vertex 63.41246192839758 63.41246192839758 123.30033746180544
  endloop
endfacet
facet normal -0.018316122154627537 0.8871682537044004 -0.46108243220524187
  outer loop
    vertex 62.96314380463887 52.92575801944618 122.85238063024906
    vertex 127.62196066110546 42.54065355370183 100.30189278884586
    vertex 130.50742369459613 39.416902041454584 94.17686292376561
  endloop
endfacet
facet normal -0.018316122154627537 0.8871682537044004 -0.46108243220524187
  outer loop
    vertex 127.62196066110546 42.54065355370183 100.30189278884586
    vertex 62.96314380463887 52.92575801944618 122.85238063024906
    vertex 65.08535955926304 55.04797377407032 126.85143059013329
  endloop
endfacet
facet normal 1.6557400951015155e-13 0.9046424517900503 0.4261713674324993
  outer loop
    vertex 42.54065355370183 127.62196066110546 100.30189278884586
    vertex 39.595618400521964 130.56699581428532 94.05040799851197
    vertex 39.41690204145457 130.50742369459624 94.17686292376557
  endloop
endfacet
facet normal 0.9046424517900132 -8.278700475507238e-14 0.4261713674325784
  outer loop
    vertex 127.62196066110546 42.54065355370183 100.30189278884586
    vertex 130.50742369459613 39.416902041454584 94.17686292376561
    vertex 130.5669958142853 39.59561840052199 94.05040799851201
  endloop
endfacet
facet normal -2.544722753718619e-15 0.9046424517900218 0.4261713674325604
  outer loop
    vertex 39.595618400521964 130.56699581428532 94.05040799851197
    vertex 10.037385785192713 170.16261421480732 9.999999999999998
    vertex 0.0 170.16261421480732 9.999999999999998
  endloop
endfacet
facet normal -2.544722753718619e-15 0.9046424517900218 0.4261713674325604
  outer loop
    vertex 10.037385785192713 170.16261421480732 9.999999999999998
    vertex 39.595618400521964 130.56699581428532 94.05040799851197
    vertex 50.06869289259637 130.13130710740364 94.97525309635408
  endloop
endfacet
facet normal -2.544722753718619e-15 0.9046424517900218 0.4261713674325604
  outer loop
    vertex 50.06869289259637 130.13130710740364 94.97525309635408
    vertex 39.595618400521964 130.56699581428532 94.05040799851197
    vertex 42.54065355370183 127.62196066110546 100.30189278884586
  endloop
endfacet
facet normal 0.904642451790023 5.873162463561022e-15 -0.42617136743255746
  outer loop
    vertex 10.037385785192713 170.16261421480732 9.999999999999998
    vertex 47.55934644629821 142.6780393388945 89.64861340386234
    vertex 50.06869289259637 130.13130710740364 94.97525309635408
  endloop
endfacet
facet normal 0.904642451790023 5.873162463561022e-15 -0.42617136743255746
  outer loop
    vertex 47.55934644629821 142.6780393388945 89.64861340386234
    vertex 10.037385785192713 170.16261421480732 9.999999999999998
    vertex 10.037385785192713 180.20000000000002 9.999999999999998
  endloop
endfacet
facet normal 0.42444315092483703 0.42444315092483664 0.7998099919768398
  outer loop
    vertex 55.04797377407032 65.08535955926304 126.85143059013329
    vertex 50.06869289259637 130.13130710740364 94.97525309635408
    vertex 42.54065355370183 127.62196066110546 100.30189278884586
  endloop
endfacet
facet normal 0.42444315092483703 0.42444315092483664 0.7998099919768398
  outer loop
    vertex 50.06869289259637 130.13130710740364 94.97525309635408
    vertex 160.1252284296146 180.20000000000002 10.000000000000004
    vertex 47.55934644629821 142.6780393388945 89.64861340386234
  endloop
endfacet
facet normal 0.42444315092483703 0.42444315092483664 0.7998099919768398
  outer loop
    vertex 160.1252284296146 180.20000000000002 10.000000000000004
    vertex 50.06869289259637 130.13130710740364 94.97525309635408
    vertex 55.04797377407032 65.08535955926304 126.85143059013329
  endloop
endfacet
facet normal 0.42444315092483703 0.42444315092483664 0.7998099919768398
  outer loop
    vertex 160.1252284296146 180.20000000000002 10.000000000000004
    vertex 55.04797377407032 65.08535955926304 126.85143059013329
    vertex 63.41246192839758 63.41246192839758 123.30033746180544
  endloop
endfacet
facet normal 0.42444315092483703 0.42444315092483664 0.7998099919768398
  outer loop
    vertex 160.1252284296146 180.20000000000002 10.000000000000004
    vertex 63.41246192839758 63.41246192839758 123.30033746180544
    vertex 65.08535955926304 55.04797377407032 126.85143059013329
  endloop
endfacet
facet normal 0.42444315092483703 0.42444315092483664 0.7998099919768398
  outer loop
    vertex 160.1252284296146 180.20000000000002 10.000000000000004
    vertex 65.08535955926304 55.04797377407032 126.85143059013329
    vertex 127.62196066110546 42.54065355370183 100.30189278884586
  endloop
endfacet
facet normal 0.42444315092483703 0.42444315092483664 0.7998099919768398
  outer loop
    vertex 160.1252284296146 180.20000000000002 10.000000000000004
    vertex 127.62196066110546 42.54065355370183 100.30189278884586
    vertex 130.13130710740364 50.06869289259637 94.97525309635408
  endloop
endfacet
facet normal 0.42444315092483703 0.42444315092483664 0.7998099919768398
  outer loop
    vertex 160.1252284296146 180.20000000000002 10.000000000000004
    vertex 130.13130710740364 50.06869289259637 94.97525309635408
    vertex 142.67803933889456 47.559346446298186 89.6486134038623
  endloop
endfacet
facet normal 0.42444315092483703 0.42444315092483664 0.7998099919768398
  outer loop
    vertex 160.1252284296146 180.20000000000002 10.000000000000004
    vertex 142.67803933889456 47.559346446298186 89.6486134038623
    vertex 180.20000000000002 160.1252284296146 9.99999999999999
  endloop
endfacet
facet normal 0.42444315092483703 0.42444315092483664 0.7998099919768398
  outer loop
    vertex 160.1252284296146 180.20000000000002 10.000000000000004
    vertex 180.20000000000002 160.1252284296146 9.99999999999999
    vertex 170.16261421480732 170.16261421480732 9.999999999999998
  endloop
endfacet
facet normal -0.9046424517900227 0.0 -0.4261713674325584
  outer loop
    vertex 130.5669958142853 39.59561840052199 94.05040799851201
    vertex 170.16261421480732 10.037385785192713 9.999999999999998
    vertex 170.16261421480732 0.0 9.999999999999998
  endloop
endfacet
facet normal -0.9046424517900227 0.0 -0.4261713674325584
  outer loop
    vertex 170.16261421480732 10.037385785192713 9.999999999999998
    vertex 130.5669958142853 39.59561840052199 94.05040799851201
    vertex 133.01677014089435 46.94494138034913 88.85022323127384
  endloop
endfacet
facet normal 0.0 -1.0 0.0
  outer loop
    vertex 170.16261421480732 170.16261421480732 9.999999999999998
    vertex 165.9181827055583 170.16261421480732 6.000950040115804
    vertex 170.16261421480732 170.16261421480732 3.7485152096661447
  endloop
endfacet
facet normal 0.0 -1.0 0.0
  outer loop
    vertex 170.16261421480732 170.16261421480732 3.7485152096661447
    vertex 10.037385785192713 170.16261421480732 0.0
    vertex 170.16261421480732 170.16261421480732 0.0
  endloop
endfacet
facet normal 0.0 -1.0 0.0
  outer loop
    vertex 10.037385785192713 170.16261421480732 0.0
    vertex 170.16261421480732 170.16261421480732 3.7485152096661447
    vertex 10.037385785192713 170.16261421480732 9.999999999999998
  endloop
endfacet
facet normal 0.0 -1.0 0.0
  outer loop
    vertex 10.037385785192713 170.16261421480732 9.999999999999998
    vertex 170.16261421480732 170.16261421480732 3.7485152096661447
    vertex 165.9181827055583 170.16261421480732 6.000950040115804
  endloop
endfacet
facet normal 0.0 -1.0 0.0
  outer loop
    vertex 10.037385785192713 170.16261421480732 9.999999999999998
    vertex 165.9181827055583 170.16261421480732 6.000950040115804
    vertex 158.38247360208783 170.16261421480732 9.999999999999998
  endloop
endfacet
facet normal -1.0 0.0 0.0
  outer loop
    vertex 170.16261421480732 170.16261421480732 9.999999999999998
    vertex 170.16261421480732 165.9181827055583 6.000950040115801
    vertex 170.16261421480732 158.38247360208777 9.999999999999998
  endloop
endfacet
facet normal -1.0 0.0 0.0
  outer loop
    vertex 170.16261421480732 170.16261421480732 3.7485152096661447
    vertex 170.16261421480732 165.9181827055583 6.000950040115801
    vertex 170.16261421480732 170.16261421480732 9.999999999999998
  endloop
endfacet
endsolid пирамида змей
